<?xml version="1.0" encoding="utf-8"?>
<!-- Generator: Adobe Illustrator 27.5.0, SVG Export Plug-In . SVG Version: 6.00 Build 0)  -->
<svg version="1.1" xmlns="http://www.w3.org/2000/svg" xmlns:xlink="http://www.w3.org/1999/xlink" x="0px" y="0px"
	 viewBox="0 0 1200 675" style="enable-background:new 0 0 1200 675;" xml:space="preserve">
<g id="Background">
</g>
<g>
	<g>
		<path style="fill:#FFB831;" d="M601.799,39.647c-164.253,0-297.406,133.153-297.406,297.406h594.812
			C899.205,172.8,766.052,39.647,601.799,39.647z"/>
		<g>
			<defs>
				<path id="SVGID_1_" d="M899.205,337.947c0,164.253-133.153,297.406-297.406,297.406S304.393,502.2,304.393,337.947H899.205z"/>
			</defs>
			<clipPath id="SVGID_00000160151026569462274120000003390874221497296289_">
				<use xlink:href="#SVGID_1_"  style="overflow:visible;"/>
			</clipPath>
			<g style="clip-path:url(#SVGID_00000160151026569462274120000003390874221497296289_);">
				
					<line style="fill:none;stroke:#FF7E33;stroke-width:11.8418;stroke-miterlimit:10;" x1="168.789" y1="348.019" x2="1034.809" y2="348.019"/>
				
					<line style="fill:none;stroke:#FF7E33;stroke-width:11.1757;stroke-miterlimit:10;" x1="168.789" y1="365.61" x2="1034.809" y2="365.61"/>
				
					<line style="fill:none;stroke:#FF7E33;stroke-width:10.5096;stroke-miterlimit:10;" x1="168.789" y1="383.202" x2="1034.809" y2="383.202"/>
				
					<line style="fill:none;stroke:#FF7E33;stroke-width:9.8435;stroke-miterlimit:10;" x1="168.789" y1="400.793" x2="1034.809" y2="400.793"/>
				
					<line style="fill:none;stroke:#FF7E33;stroke-width:9.1774;stroke-miterlimit:10;" x1="168.789" y1="418.384" x2="1034.809" y2="418.384"/>
				
					<line style="fill:none;stroke:#FF7E33;stroke-width:8.5113;stroke-miterlimit:10;" x1="168.789" y1="435.976" x2="1034.809" y2="435.976"/>
				
					<line style="fill:none;stroke:#FF7E33;stroke-width:7.8452;stroke-miterlimit:10;" x1="168.789" y1="453.567" x2="1034.809" y2="453.567"/>
				
					<line style="fill:none;stroke:#FF7E33;stroke-width:7.1791;stroke-miterlimit:10;" x1="168.789" y1="471.158" x2="1034.809" y2="471.158"/>
				
					<line style="fill:none;stroke:#FF7E33;stroke-width:6.513;stroke-miterlimit:10;" x1="168.789" y1="488.749" x2="1034.809" y2="488.749"/>
				
					<line style="fill:none;stroke:#FF7E33;stroke-width:5.8469;stroke-miterlimit:10;" x1="168.789" y1="506.341" x2="1034.809" y2="506.341"/>
				
					<line style="fill:none;stroke:#FF7E33;stroke-width:5.1808;stroke-miterlimit:10;" x1="168.789" y1="523.932" x2="1034.809" y2="523.932"/>
				
					<line style="fill:none;stroke:#FF7E33;stroke-width:4.5147;stroke-miterlimit:10;" x1="168.789" y1="541.523" x2="1034.809" y2="541.523"/>
				
					<line style="fill:none;stroke:#FF7E33;stroke-width:3.8486;stroke-miterlimit:10;" x1="168.789" y1="559.115" x2="1034.809" y2="559.115"/>
				
					<line style="fill:none;stroke:#FF7E33;stroke-width:3.1825;stroke-miterlimit:10;" x1="168.789" y1="576.706" x2="1034.809" y2="576.706"/>
				
					<line style="fill:none;stroke:#FF7E33;stroke-width:2.5164;stroke-miterlimit:10;" x1="168.789" y1="594.297" x2="1034.809" y2="594.297"/>
				
					<line style="fill:none;stroke:#FF7E33;stroke-width:1.8503;stroke-miterlimit:10;" x1="168.789" y1="611.888" x2="1034.809" y2="611.888"/>
				
					<line style="fill:none;stroke:#FF7E33;stroke-width:1.1842;stroke-miterlimit:10;" x1="168.789" y1="629.48" x2="1034.809" y2="629.48"/>
			</g>
		</g>
	</g>
</g>
</svg>
